# xmcd
#
# Track frame offsets:
#	150
#	19631
#	38370
#	53157
#	69650
#	91374
#	107277
#	127596
#	145195
#	163271
#	181205
#	206407
#	224019
#	244606
#	263773
#
# Disc length: 3748 seconds
#
# Revision: 1
# Processed by: cddbd v1.5.2PL0 Copyright (c) Steve Scherf et al.
# Submitted via: audiograbber 1.83.01
#
DISCID=c40ea20f
DTITLE=Various Artist - Edge Of The 80's - On The Dancefloor[CD1]
DYEAR=1900
DGENRE=Retro
TTITLE0=Miami Sound Machine - Dr. Beat
TTITLE1=Billy Ocean - When The Going Gets Tough
TTITLE2=Kelly Marie - Feels Like I'm In Love
TTITLE3=Cliff Richard - Wired For Sound
TTITLE4=Bobby Brown - My Prerogative
TTITLE5=Wham! - Wham Rap!
TTITLE6=The Jacksons - State Of Shock
TTITLE7=Debarge - Rhythm Of The Night
TTITLE8=Fat and Beach Boys - Wipeout
TTITLE9=Lipps Inc - Funkytown
TTITLE10=Earth, Wind and Fire - Let's Groove
TTITLE11=Sister Sledge - Frankie
TTITLE12=Ollie and Jerry - Breakin'
TTITLE13=Chris Rea - Let's Dance
TTITLE14=Jimmy Somerville - You Make Me Feel
EXTD=
EXTT0=
EXTT1=
EXTT2=
EXTT3=
EXTT4=
EXTT5=
EXTT6=
EXTT7=
EXTT8=
EXTT9=
EXTT10=
EXTT11=
EXTT12=
EXTT13=
EXTT14=
PLAYORDER=
